<?xml version="1.0" encoding="UTF-8"?>
<svg version="1.1" xmlns="http://www.w3.org/2000/svg" width="236" height="236">
<path d="M0 0 C21.91708617 18.72152655 38.84633064 46.50691142 41.17578125 75.73828125 C43.03385853 113.90075532 34.1612384 144.75309071 8.78125 173.4453125 C-11.25495292 194.54479651 -39.83748691 208.10861392 -68.9375 209.01953125 C-105.36166309 209.67942237 -135.49158528 199.17196704 -162.01171875 173.98828125 C-186.51828081 148.51594335 -195.74478419 117.66057693 -195.1015625 82.84375 C-194.14469366 52.39467486 -179.36106173 24.10636952 -157.6015625 3.171875 C-112.76350362 -36.11660697 -46.2850765 -38.46656142 0 0 Z " fill="#010101" transform="translate(194.82421875,27.26171875)"/>
<path d="M0 0 C23.1 0 46.2 0 70 0 C66.62559299 12.37282569 66.62559299 12.37282569 64.72265625 18.2109375 C64.51560059 18.84878174 64.30854492 19.48662598 64.09521484 20.14379883 C63.42008777 22.22167049 62.74134098 24.29833903 62.0625 26.375 C61.57649799 27.86792204 61.09074545 29.36092531 60.60522461 30.85400391 C59.58683684 33.98504759 58.56717884 37.11567399 57.546875 40.24609375 C56.03413475 44.89080534 54.5316235 49.53878142 53.03125 54.1875 C52.04202518 57.25011592 51.05236396 60.3125906 50.0625 63.375 C49.8170343 64.13472107 49.5715686 64.89444214 49.31866455 65.67718506 C46.48849901 74.4293695 43.62020774 83.16703593 40.6796875 91.8828125 C40.40678391 92.69350189 40.13388031 93.50419128 39.85270691 94.33944702 C38.54979767 98.20871917 37.24097526 102.07576624 35.92016602 105.93896484 C33.41160263 113.33709914 31.22907254 120.64209406 29.64819336 128.30908203 C29.03411267 130.85838425 28.23317094 133.00569392 27.125 135.375 C24.21942593 141.69889651 22.20077322 148.39768033 20 155 C42.11 154.67 64.22 154.34 87 154 C84.03 151.36 81.06 148.72 78 146 C75.44140625 142.6640625 75.44140625 142.6640625 73.5625 139.625 C71.07161433 135.57978551 71.07161433 135.57978551 68 132 C67.20561538 129.60235008 66.51123008 127.25138197 65.875 124.8125 C65.69324219 124.16474609 65.51148438 123.51699219 65.32421875 122.84960938 C64.10128535 118.24751788 64 114.94711139 64 110 C82.15 110 100.3 110 119 110 C119 128.81 119 147.62 119 167 C93.02731769 167.24065286 93.02731769 167.24065286 81.90625 167.29296875 C74.33502793 167.32875493 66.76424366 167.37096564 59.19335938 167.45263672 C53.08546418 167.51810904 46.97803884 167.55376534 40.86981964 167.56926346 C38.54631409 167.58029973 36.22283255 167.60185073 33.8995285 167.63438034 C10.61505062 167.94725767 10.61505062 167.94725767 1 161 C0.41224792 160.62144867 -0.17550415 160.24289734 -0.78106689 159.85287476 C-8.51767713 154.28128818 -13.11373042 144.82295676 -16 136 C-16.53947266 134.46859375 -16.53947266 134.46859375 -17.08984375 132.90625 C-18.48757563 127.90876913 -18.2901074 122.83795823 -18.25 117.6875 C-18.25773437 116.70587891 -18.26546875 115.72425781 -18.2734375 114.71289062 C-18.24878143 105.39905873 -16.52533222 97.02185733 -13.625 88.1875 C-13.38313965 87.43557373 -13.1412793 86.68364746 -12.89208984 85.90893555 C-12.30576585 84.09043391 -11.71644425 82.27289748 -11.125 80.45605469 C-9.72398343 76.15206368 -8.33097297 71.84550051 -6.9375 67.5390625 C-3.96509504 58.35717538 -0.98428975 49.17803035 2 40 C2.66 40 3.32 40 4 40 C4.12117188 39.443125 4.24234375 38.88625 4.3671875 38.3125 C4.53476563 37.549375 4.70234375 36.78625 4.875 36 C5.05546875 35.175 5.2359375 34.35 5.421875 33.5 C5.92845339 31.30939076 6.51446729 29.16303016 7.125 27 C8.19689049 22.68650521 8.71196231 18.41596878 8 14 C5.25034983 10.59043379 1.13656597 10.03414149 -3 9 C-2.01 6.03 -1.02 3.06 0 0 Z " fill="#FCFCFC" transform="translate(80,23)"/>
</svg>
